<svg width="40" height="40" xmlns="http://www.w3.org/2000/svg" xmlns:xlink="http://www.w3.org/1999/xlink"><g fill="#EBEBEB"><path d="M20 0C8.953 0 0 8.954 0 20c0 11.044 8.954 20 20 20 11.044 0 20-8.956 20-20C40 8.953 31.043 0 20 0z" id="a"/></g><mask id="b" fill="#fff"><use xlink:href="#a"/></mask><path d="M20.136 40H6c0-10.067 8.928-10.065 10.874-12.639l.272-1.344c-2.793-1.312-4.758-4.68-4.894-8.605C12.388 12.208 15.797 8 20.136 8c4.068 0 7.477 4.208 7.612 9.412-.135 3.892-2.065 7.238-4.894 8.605l.272 1.344C25.368 29.938 34 30.101 34 40H20.136z" fill="#C4C4C6" mask="url(#b)"/></svg>
